PathFileType	4	(X/Y/Z)	C:\Users\Graham\Documents\MATLAB\MOtoNMS_v2_2\MyData\ElaboratedData\S9\22-05-17\staticElaborations\Static1\Static1\\Static1.trc
DataRate	CameraRate	NumFrames	NumMarkers	Units	OrigDataRate	DataStartFrame
100	100	8	38	mm	100	2
Frame#	Time	V_Sacral			R_ASIS			L_ASIS			R_Knee_Lat			R_Knee_Med			R_Thigh_Upper			R_Thigh_Front			R_Thigh_Rear			L_Knee_Lat			L_Knee_Med			L_Thigh_Upper			L_Thigh_Front			L_Thigh_Rear			R_Ankle_Lat			R_Ankle_Med			R_Shank_Upper			R_Shank_Front			R_Shank_Rear			L_Ankle_Lat			L_Ankle_Med			L_Shank_Upper			L_Shank_Front			L_Shank_Rear			R_Heel			R_MTP1			R_MTP5			L_Heel			L_MTP1			L_MTP5			Clavicle			R_Acromium			L_Acromium			LAJC			RAJC			LHJC			RHJC			LKJC			RKJC		
		X1	Y1	Z1	X2	Y2	Z2	X3	Y3	Z3	X4	Y4	Z4	X5	Y5	Z5	X6	Y6	Z6	X7	Y7	Z7	X8	Y8	Z8	X9	Y9	Z9	X10	Y10	Z10	X11	Y11	Z11	X12	Y12	Z12	X13	Y13	Z13	X14	Y14	Z14	X15	Y15	Z15	X16	Y16	Z16	X17	Y17	Z17	X18	Y18	Z18	X19	Y19	Z19	X20	Y20	Z20	X21	Y21	Z21	X22	Y22	Z22	X23	Y23	Z23	X24	Y24	Z24	X25	Y25	Z25	X26	Y26	Z26	X27	Y27	Z27	X28	Y28	Z28	X29	Y29	Z29	X30	Y30	Z30	X31	Y31	Z31	X32	Y32	Z32	X33	Y33	Z33	X34	Y34	Z34	X35	Y35	Z35	X36	Y36	Z36	X37	Y37	Z37	X38	Y38	Z38	

83	0.820000	-160.680714	1025.911558	-2.188241	8.861540	1000.921360	155.402715	55.240268	1008.650689	-86.735217	-95.166210	497.214154	165.904072	-100.971859	476.132409	52.186126	32.038074	722.412467	135.905563	2.653803	612.791910	92.479072	-2.036809	607.810460	169.698841	-64.088922	497.186593	-149.130042	-79.356795	473.984668	-36.624642	63.560316	718.433576	-84.357251	31.541049	607.837462	-54.939468	36.157342	608.293970	-122.273446	-144.811960	96.122906	146.147176	-126.173879	100.798040	56.034788	-59.848824	340.241358	135.986133	-94.202290	229.425227	77.771734	-98.731902	223.666847	159.491471	-136.539518	89.614685	-152.272308	-125.977505	97.832385	-58.224761	-42.857269	336.005879	-121.612737	-70.607043	221.089153	-74.590906	-82.269996	222.342013	-155.536016	-204.142374	43.328143	112.991408	35.200765	59.435505	78.432211	21.951082	51.108602	161.059180	-201.908914	44.750746	-110.818507	40.068364	55.373502	-69.180817	36.824457	49.359699	-148.821299	29.211696	1406.382960	43.093342	-100.857276	1474.069551	224.803743	-48.332413	1512.652828	-169.978215	-131.258512	93.723535	-105.248534	-135.492919	98.460473	101.090982	-15.644557	929.324539	-67.565370	-48.999703	923.765678	106.577958	-71.722858	485.585630	-92.877342	-98.069035	486.673282	109.045099	
84	0.830000	-160.784183	1025.911249	-2.201594	8.775058	1000.894048	155.375295	55.128384	1008.647971	-86.758685	-95.229252	497.217957	165.879803	-101.017104	476.129829	52.175130	31.964157	722.417888	135.874181	2.583531	612.792703	92.451535	-2.151456	607.796044	169.647977	-64.183108	497.183745	-149.091067	-79.514101	474.023330	-36.703001	63.462642	718.447580	-84.381630	31.448104	607.854599	-54.962456	36.065539	608.302149	-122.292902	-144.815540	96.122252	146.145567	-126.177282	100.796317	56.032856	-59.885990	340.247008	135.980549	-94.223236	229.427273	77.765150	-98.754064	223.670241	159.484728	-136.543033	89.613170	-152.276628	-125.985580	97.833566	-58.230429	-42.911321	336.021566	-121.630486	-70.618705	221.107231	-74.602132	-82.303360	222.345946	-155.541109	-204.143309	43.325645	112.990397	35.199127	59.435880	78.431880	21.950598	51.109317	161.059800	-201.908367	44.749033	-110.820474	40.067304	55.373663	-69.180236	36.825048	49.358387	-148.822516	29.151735	1406.368532	43.139402	-100.991264	1473.971833	224.885887	-48.377266	1512.670055	-169.891965	-131.264306	93.723368	-105.253528	-135.496411	98.459285	101.089211	-15.758945	929.325802	-67.591990	-49.095909	923.749238	106.548954	-71.848605	485.603537	-92.897034	-98.123178	486.673893	109.027467	
85	0.840000	-160.886180	1025.913033	-2.222214	8.677068	1000.865717	155.352003	55.021501	1008.644918	-86.775127	-95.310961	497.223533	165.852634	-101.073990	476.127919	52.163525	31.875863	722.423605	135.849795	2.498456	612.792715	92.428779	-2.290801	607.778162	169.603261	-64.267484	497.182391	-149.065404	-79.661521	474.059517	-36.776532	63.371868	718.462146	-84.398097	31.364478	607.873357	-54.978710	35.982632	608.310685	-122.305463	-144.820313	96.121120	146.142424	-126.181382	100.794124	56.030859	-59.933036	340.255207	135.976888	-94.247387	229.431033	77.759153	-98.783424	223.675296	159.478290	-136.545622	89.611492	-152.281024	-125.993407	97.834458	-58.236294	-42.959939	336.035593	-121.647020	-70.619937	221.124555	-74.616973	-82.331869	222.349166	-155.545235	-204.144399	43.323142	112.989542	35.197505	59.436872	78.432040	21.949705	51.110474	161.060485	-201.907548	44.747480	-110.823331	40.066683	55.374000	-69.179244	36.825240	49.357171	-148.823678	29.106058	1406.355899	43.187974	-101.114126	1473.880893	224.969312	-48.417363	1512.689330	-169.802772	-131.269515	93.722975	-105.258659	-135.500848	98.457622	101.086641	-15.870325	929.327506	-67.616679	-49.200979	923.732749	106.519781	-71.964503	485.620954	-92.920968	-98.192475	486.675726	109.008080	
86	0.850000	-160.986173	1025.917346	-2.248337	8.570888	1000.837799	155.331833	54.918561	1008.642199	-86.786429	-95.407779	497.230561	165.824506	-101.142555	476.127000	52.151864	31.776304	722.429752	135.830936	2.400984	612.792315	92.410505	-2.448372	607.757968	169.565161	-64.342997	497.182569	-149.052772	-79.792404	474.090554	-36.839760	63.286710	718.477212	-84.408531	31.289569	607.893413	-54.989737	35.906616	608.319736	-122.313072	-144.825630	96.119382	146.137549	-126.186143	100.791585	56.028911	-59.988276	340.266109	135.975195	-94.274465	229.436431	77.754037	-98.818963	223.681839	159.472516	-136.547478	89.609418	-152.285414	-126.000669	97.834909	-58.242137	-43.004000	336.048212	-121.662429	-70.612956	221.141387	-74.634884	-82.356412	222.351737	-155.548766	-204.145574	43.320811	112.988904	35.196000	59.438477	78.432577	21.948414	51.111830	161.061140	-201.906565	44.745996	-110.826880	40.066515	55.374568	-69.178135	36.824894	49.356139	-148.824808	29.075604	1406.345621	43.236175	-101.218596	1473.801150	225.053053	-48.456343	1512.712146	-169.712940	-131.274074	93.722163	-105.263775	-135.505887	98.455483	101.083230	-15.979196	929.330207	-67.639752	-49.312261	923.717313	106.490754	-72.067700	485.636561	-92.946266	-98.275167	486.678780	108.988185	
87	0.860000	-161.083905	1025.924378	-2.277962	8.460317	1000.811644	155.313598	54.818226	1008.640162	-86.794643	-95.515341	497.238653	165.797413	-101.222333	476.127334	52.140746	31.669062	722.436311	135.815938	2.294143	612.791883	92.396162	-2.616519	607.736897	169.533981	-64.411035	497.184258	-149.052136	-79.901595	474.114367	-36.888285	63.205567	718.492622	-84.414848	31.222119	607.914335	-54.997088	35.835188	608.329360	-122.317659	-144.830869	96.116983	146.130992	-126.191548	100.788853	56.027132	-60.049610	340.279777	135.975446	-94.304218	229.443288	77.749975	-98.859408	223.689555	159.467700	-136.548862	89.606805	-152.289768	-126.007122	97.834827	-58.247728	-43.044646	336.059722	-121.676813	-70.602275	221.158278	-74.654843	-82.378083	222.353770	-155.552093	-204.146757	43.318792	112.988526	35.194702	59.440651	78.433359	21.946799	51.113141	161.061693	-201.905520	44.744481	-110.830841	40.066755	55.375370	-69.177181	36.823964	49.355342	-148.825920	29.061371	1406.337795	43.280728	-101.296786	1473.736841	225.135915	-48.497429	1512.738992	-169.625438	-131.277992	93.720816	-105.268748	-135.511209	98.452918	101.079062	-16.086318	929.334200	-67.661437	-49.426824	923.703947	106.462278	-72.156315	485.649312	-92.970211	-98.368837	486.682994	108.969080	
88	0.870000	-161.179487	1025.934025	-2.308845	8.349543	1000.788418	155.295983	54.718813	1008.638723	-86.801952	-95.628830	497.247406	165.773210	-101.312329	476.129091	52.130782	31.557908	722.443067	135.803013	2.181305	612.791709	92.384885	-2.787247	607.716421	169.509648	-64.473275	497.187367	-149.061852	-79.986231	474.129789	-36.919479	63.126649	718.508193	-84.418959	31.160322	607.935626	-55.002286	35.765958	608.339554	-122.321045	-144.835518	96.113938	146.123091	-126.197572	100.786090	56.025648	-60.114705	340.296141	135.977575	-94.336425	229.451317	77.747006	-98.903293	223.698029	159.464050	-136.550064	89.603608	-152.294095	-126.012619	97.834193	-58.252857	-43.083147	336.070426	-121.690287	-70.594704	221.175926	-74.675400	-82.398048	222.355423	-155.555578	-204.147875	43.317175	112.988420	35.193669	59.443311	78.434253	21.945000	51.114221	161.062098	-201.904512	44.742840	-110.834888	40.067305	55.376366	-69.176588	36.822506	49.354799	-148.827013	29.064448	1406.332075	43.317810	-101.340084	1473.691835	225.216470	-48.543635	1512.769014	-169.544062	-131.281341	93.718900	-105.273476	-135.516545	98.450014	101.074369	-16.192810	929.339423	-67.681841	-49.541569	923.693487	106.434886	-72.229753	485.658578	-92.990665	-98.470580	486.688248	108.951996	
89	0.880000	-161.273440	1025.945906	-2.338496	8.243013	1000.769000	155.277604	54.618277	1008.637323	-86.810638	-95.743371	497.256437	165.753447	-101.411032	476.132306	52.122565	31.446524	722.449602	135.790319	2.065904	612.791918	92.375493	-2.953011	607.697809	169.491536	-64.531542	497.191718	-149.079787	-80.046127	474.136699	-36.932833	63.048083	718.523786	-84.422747	31.102002	607.956778	-55.006785	35.696624	608.350290	-122.324887	-144.839221	96.110316	146.114451	-126.204156	100.783461	56.024586	-60.181181	340.314964	135.981489	-94.370877	229.460132	77.745060	-98.949045	223.706794	159.461706	-136.551370	89.599869	-152.298406	-126.017130	97.833053	-58.257353	-43.120770	336.080591	-121.702997	-70.598954	221.194998	-74.694775	-82.417444	222.356884	-155.559499	-204.148867	43.315998	112.988567	35.192919	59.446327	78.435138	21.943209	51.114975	161.062343	-201.903620	44.740985	-110.838700	40.068016	55.377485	-69.176467	36.820672	49.354502	-148.828074	29.085980	1406.327752	43.342988	-101.339294	1473.669462	225.293054	-48.597964	1512.799920	-169.473435	-131.284250	93.716461	-105.277879	-135.521688	98.446888	101.069518	-16.300210	929.345424	-67.700964	-49.653367	923.686515	106.409245	-72.288835	485.664208	-93.006310	-98.577202	486.694371	108.938006	
90	0.890000	-161.366662	1025.959425	-2.364202	8.145281	1000.753909	155.257068	54.514242	1008.634976	-86.823040	-95.854421	497.265408	165.739237	-101.516457	476.136859	52.116640	31.338274	722.455313	135.776018	1.951170	612.792423	92.366561	-3.107342	607.681946	169.478392	-64.587701	497.197038	-149.103463	-80.083688	474.135961	-36.929897	62.968006	718.539370	-84.428078	31.044793	607.977328	-55.011958	35.625093	608.361558	-122.330674	-144.841781	96.106234	146.105870	-126.211186	100.781112	56.024072	-60.246802	340.335821	135.987090	-94.407335	229.469275	77.743994	-98.995071	223.715398	159.460760	-136.553033	89.595695	-152.302679	-126.020744	97.831498	-58.261109	-43.158675	336.090435	-121.715142	-70.624787	221.215944	-74.711003	-82.437316	222.358338	-155.563996	-204.149694	43.315256	112.988920	35.192434	59.449538	78.435923	21.941646	51.115408	161.062444	-201.902915	44.738842	-110.841990	40.068715	55.378649	-69.176832	36.818684	49.354434	-148.829078	29.127033	1406.323887	43.351285	-101.285049	1473.672359	225.363781	-48.663574	1512.828193	-169.418791	-131.286888	93.713597	-105.281894	-135.526484	98.443673	101.064971	-16.410472	929.351400	-67.718744	-49.759192	923.683308	106.386125	-72.335694	485.666499	-93.016680	-98.685439	486.701133	108.927938	
